<?xml version="1.0" encoding="UTF-8" standalone="no"?>
<svg
   viewBox="0 0 41.98 40.5"
   version="1.1"
   id="svg1"
   sodipodi:docname="cloud-clr.svg"
   inkscape:version="1.4.3 (0d15f75, 2025-12-25)"
   xmlns:inkscape="http://www.inkscape.org/namespaces/inkscape"
   xmlns:sodipodi="http://sodipodi.sourceforge.net/DTD/sodipodi-0.dtd"
   xmlns="http://www.w3.org/2000/svg"
   xmlns:svg="http://www.w3.org/2000/svg">
  <sodipodi:namedview
     id="namedview1"
     pagecolor="#ffffff"
     bordercolor="#000000"
     borderopacity="0.25"
     inkscape:showpageshadow="2"
     inkscape:pageopacity="0.0"
     inkscape:pagecheckerboard="0"
     inkscape:deskcolor="#d1d1d1"
     inkscape:zoom="21.851852"
     inkscape:cx="20.982203"
     inkscape:cy="20.25"
     inkscape:window-width="1920"
     inkscape:window-height="1129"
     inkscape:window-x="-8"
     inkscape:window-y="-8"
     inkscape:window-maximized="1"
     inkscape:current-layer="svg1" />
  <defs
     id="defs1">
    <style
       id="style1">.a{fill:none;stroke:#000;stroke-linejoin:round;stroke-width:5px;fill-rule:evenodd;}</style>
  </defs>
  <title
     id="title1">flower</title>
  <path
     class="a"
     d="m 13.95,29 c -0.705443,0.431563 -1.440623,0.81252 -2.2,1.14 -1.550014,0.613904 -3.2705441,0.642343 -4.84,0.08 -3.4605922,-1.45006 -5.2305991,-5.403419 -4.07,-8.971525 0.4971959,-1.859111 1.693892,-3.354771 3.5069492,-4 C 7.3469492,16.898475 8.53,16.68 9.63,16.4 8.8573295,15.701065 8.1448178,14.938376 7.5,14.12 6.48466,12.844538 6.0106557,11.221432 6.18,9.6 6.4368296,7.5643231 7.5183863,5.1910292 9.2242373,4.0508475 10.966603,2.6975905 13.234947,2.2217914 15.374237,2.7608475 17.38527,3.3293551 19.119771,5.2490248 20.09,7.1 L 20.6,8 c 0.42,-0.78 0.77,-1.5 1.2,-2.18 1.725309,-2.7572812 5.122546,-3.9628863 8.2,-2.91 2.104377,0.7099441 3.78083,2.3240343 4.57,4.4 0.766163,1.9320957 0.437939,4.126622 -0.86,5.75 -0.55,0.76 -1.21,1.42 -1.84,2.23 0.52,0.07 1,0.11 1.47,0.19 1.477416,0.213798 2.864174,0.841306 4,1.81 1.60975,1.394781 2.369069,3.532264 2,5.63 -0.206605,2.152371 -1.32851,4.112061 -3.08,5.38 -1.869276,1.290815 -4.239141,1.62089 -6.39,0.89 -0.737576,-0.192322 -1.088278,-0.319649 -2.002712,-0.79 0.186345,0.988635 0.129512,1.994314 0.102712,3 -0.08426,2.671649 -0.979684,4.759504 -3.472034,5.725424 -1.712876,0.68127 -4.378176,0.835782 -6.157966,0.355762 -1.748619,-0.437947 -3.213374,-1.399247 -4,-3.021186 -0.51764,-1.160503 -0.727718,-2.434749 -0.61,-3.7 0.14,-0.58 0.18,-1.15 0.22,-1.76 z"
     id="path1"
     style="fill:#9fa2ad;fill-opacity:1;stroke-width:3;stroke-dasharray:none"
     sodipodi:nodetypes="ccccccccccccccccccccccccccccc" />
</svg>
