<?xml version="1.0" encoding="UTF-8" standalone="no"?>
<svg
   viewBox="0 0 41.14 41.14"
   version="1.1"
   id="svg1"
   sodipodi:docname="rocket-clr.svg"
   inkscape:version="1.4.3 (0d15f75, 2025-12-25)"
   xmlns:inkscape="http://www.inkscape.org/namespaces/inkscape"
   xmlns:sodipodi="http://sodipodi.sourceforge.net/DTD/sodipodi-0.dtd"
   xmlns="http://www.w3.org/2000/svg"
   xmlns:svg="http://www.w3.org/2000/svg"
   xmlns:rdf="http://www.w3.org/1999/02/22-rdf-syntax-ns#"
   xmlns:cc="http://creativecommons.org/ns#"
   xmlns:dc="http://purl.org/dc/elements/1.1/">
  <sodipodi:namedview
     id="namedview1"
     pagecolor="#ffffff"
     bordercolor="#000000"
     borderopacity="0.25"
     inkscape:showpageshadow="2"
     inkscape:pageopacity="0.0"
     inkscape:pagecheckerboard="0"
     inkscape:deskcolor="#d1d1d1"
     inkscape:zoom="21.511911"
     inkscape:cx="20.57"
     inkscape:cy="20.57"
     inkscape:window-width="1920"
     inkscape:window-height="1129"
     inkscape:window-x="-8"
     inkscape:window-y="-8"
     inkscape:window-maximized="1"
     inkscape:current-layer="svg1" />
  <defs
     id="defs1">
    <style
       id="style1">.a{fill:none;stroke:#231f20;stroke-miterlimit:10;stroke-width:5px;}</style>
  </defs>
  <title
     id="title1">rocket</title>
  <path
     class="a"
     d="M37,28.37c-.77-.6-1.86-1.43-2.9-2.08-1.21-.89-.75-2-.63-3.21.28-2.17.28-1.81.46-3.52.35-3.32-1.31-7.2-3.66-9.89A38,38,0,0,0,24.9,4.84C23,3.35,21.78,2.57,20.61,2.5h-.07c-1.17.07-2.4.84-4.29,2.34a38,38,0,0,0-5.36,4.82c-2.35,2.69-4,6.58-3.66,9.89.18,1.71.18,1.36.46,3.52.12,1.21.58,2.32-.63,3.21-1,.65-2.13,1.49-2.9,2.08C2.59,29.43,2,30.26,3,31.92a28.46,28.46,0,0,0,4.34,5.74c1.32,1.19,2,1.5,3.95-.22,1-.9,1.65-1.64,3.06-3,2.41-2.34,2.95-2.28,4-2.34h4.48c1,.06,1.56,0,4,2.34,1.41,1.37,2,2.1,3.06,3,2,1.72,2.63,1.42,3.95.22a28.45,28.45,0,0,0,4.34-5.74C39.16,30.26,38.55,29.43,37,28.37Z"
     id="path1"
     style="stroke-width:3;stroke-dasharray:none;fill:#0eacf8;fill-opacity:1" />
  <metadata
     id="metadata2">
    <rdf:RDF>
      <cc:Work
         rdf:about="">
        <dc:title>rocket</dc:title>
      </cc:Work>
    </rdf:RDF>
  </metadata>
</svg>
