<svg width="37" height="37" viewBox="0 0 37 37" fill="none" xmlns="http://www.w3.org/2000/svg">
<path d="M18.5 37C28.7173 37 37 28.7173 37 18.5C37 8.28273 28.7173 0 18.5 0C8.28273 0 0 8.28273 0 18.5C0 28.7173 8.28273 37 18.5 37Z" fill="#2D598A"/>
<path d="M19.9443 28.7778C17.9352 28.7778 16.1317 28.3526 14.5336 27.5023C12.9355 26.652 11.6798 25.468 10.7666 23.9503C9.85343 22.4326 9.39683 20.7137 9.39683 18.7936C9.39683 16.8736 9.85343 15.1547 10.7666 13.637C11.6798 12.1193 12.9355 10.9353 14.5336 10.085C16.1317 9.23467 17.9352 8.80952 19.9443 8.80952C21.6976 8.80952 23.2775 9.12038 24.6838 9.74211C26.0901 10.3638 27.259 11.2598 28.1905 12.4301L24.7386 15.557C23.4966 14.0576 21.9899 13.3079 20.2182 13.3079C19.1772 13.3079 18.2503 13.5364 17.4376 13.9936C16.6248 14.4507 15.9947 15.0953 15.5472 15.9273C15.0998 16.7593 14.876 17.7148 14.876 18.7936C14.876 19.8725 15.0998 20.828 15.5472 21.66C15.9947 22.492 16.6248 23.1366 17.4376 23.5937C18.2503 24.0509 19.1772 24.2794 20.2182 24.2794C21.9899 24.2794 23.4966 23.5297 24.7386 22.0303L28.1905 25.1572C27.259 26.3275 26.0901 27.2235 24.6838 27.8452C23.2775 28.4669 21.6976 28.7778 19.9443 28.7778Z" fill="white"/>
</svg>
