<?xml version="1.0" encoding="utf-8"?>
<!-- Generator: Adobe Illustrator 27.7.0, SVG Export Plug-In . SVG Version: 6.00 Build 0)  -->
<svg version="1.1" id="Layer_1" xmlns="http://www.w3.org/2000/svg" xmlns:xlink="http://www.w3.org/1999/xlink" x="0px" y="0px"
	 viewBox="0 0 256 256" style="enable-background:new 0 0 256 256;" xml:space="preserve">
<style type="text/css">
	.st0{fill:#8C1515;}
</style>
<path class="st0" d="M128,0C57.3,0,0,57.3,0,128s57.3,128,128,128s128-57.3,128-128S198.7,0,128,0z M196.5,150.4
	c0.8,1.2,1.5,2.6,1,4.1c-0.1,0.4-0.6,0.9-1,1.1c-4.5,1.4-9.1,2.8-13.7,4.2c-6.6,2-13.3,4-19.9,6c-0.3,0.1-0.5,0.1-0.6,0.1
	c-1.1,0-1.8-0.5-1.9-1.3c-0.2-0.7,0.3-1.5,1.1-1.9c1-0.4,2-0.8,2.9-1.2c5.1-2,10.1-4,15.2-5.9c4.9-1.9,9.8-3.8,14.7-5.7
	C195.3,149.4,196,149.6,196.5,150.4z M185.2,123.6c1.4-2,3.2-1.5,4.5-0.1c0.6,0.6,1.2,1.3,1,2.2c0.2,0.8-0.2,1.4-0.7,1.9
	c-3.6,4-7.2,8-10.8,12c-4.3,4.8-8.6,9.5-12.9,14.3c-3.2,3.5-6.3,7-9.5,10.5c-1.2,1.3-2.6,1.1-3.3-0.3c-0.3-0.7-0.3-1.4,0.2-2.1
	c1.7-2.1,3.4-4.2,5.1-6.2c4.3-5.3,8.6-10.5,13-15.8c3.8-4.6,7.6-9.3,11.4-13.9C183.8,125.3,184.6,124.5,185.2,123.6z M154.3,138.8
	c1-2.8,2.1-5.5,3.1-8.3c1.2-3.2,2.3-6.4,3.5-9.6c1.2-3.2,2.4-6.3,3.6-9.5c0.9-2.4,1.9-4.7,2.6-7.1c0.8-2.7,2.8-2.9,5.2-1.9
	c0.8,0.3,1.5,0.9,2.1,1.5c0.4,0.4,0.5,1.1,0.8,1.7c-0.2,0.7-0.4,1.4-0.6,2c-1.8,4.1-3.6,8.2-5.4,12.3c-1.9,4.3-3.8,8.6-5.6,12.9
	c-2,4.5-4,9-5.9,13.5c-1.9,4.3-3.8,8.5-5.6,12.8c-0.6,1.4-1.2,2.8-1.8,4.1c-0.6,1.3-1.8,1.8-2.8,1.3c-1.4-0.7-1.8-1.8-1.2-3.2
	c0.7-1.6,1.2-3.2,1.9-4.9c1-2.6,1.9-5.2,2.9-7.7C151.9,145.2,153.1,142,154.3,138.8z M138.3,153.2c0-3.8,0.1-7.6,0.2-11.4
	c0.1-3.9,0.1-7.9,0.2-11.8c0.1-4,0.1-8,0.2-12c0.1-4,0.1-7.9,0.2-11.9c0.1-3.7,0.1-7.4,0.2-11.2c0-2.7,1.7-4.4,4.2-4.2
	c0.2,0,0.3,0,0.7,0c1,0,2.1,0,3.1,0.7c0.8,0.6,1.3,1.2,1.2,2.3c-0.2,2.4-0.3,4.9-0.5,7.3c-0.1,1.8-0.2,3.6-0.3,5.3
	c-0.1,1.8-0.3,3.6-0.5,5.4c-0.1,0.8-0.1,1.7-0.2,2.5c-0.2,2.6-0.3,5.2-0.5,7.9c-0.1,2.2-0.3,4.3-0.5,6.5c-0.2,2.6-0.5,5.1-0.7,7.7
	c-0.1,1.9-0.2,3.7-0.3,5.6c-0.2,2.4-0.4,4.9-0.7,7.3c-0.1,0.9-0.1,1.8-0.2,2.7c-0.2,2.1-0.3,4.2-0.5,6.3c-0.1,1.4-0.1,2.9-0.3,4.3
	c-0.2,1.3-1.2,1.9-2.7,1.7c-1.2-0.1-2.1-1-2.1-2.2C138.3,159,138.3,156.1,138.3,153.2z M204,173.5c0,1.6-0.9,2.4-2.5,2.5
	c-0.3,0-0.6,0-0.9,0c-49.3,0-98.5,0-147.8,0c-0.9,0-1.8-0.1-2.6-0.3c-1.7-0.4-2.3-1.5-2.5-3.2c-0.2-2.8-0.3-5.5-0.5-8.3
	c-0.1-2.2-0.3-4.3-0.5-6.5c-0.2-2.5-0.4-5-0.7-7.5c-0.1-0.8-0.1-1.7-0.2-2.5c-0.2-2.7-0.3-5.3-0.5-8c-0.1-2.2-0.3-4.4-0.5-6.5
	c-0.2-2.2-0.3-4.4-0.5-6.6c-0.2-2.3-0.3-4.5-0.5-6.8c-0.2-2.3-0.3-4.5-0.5-6.8c-0.2-2.2-0.3-4.4-0.5-6.6c-0.2-3.1-0.4-6.1-0.7-9.2
	c-0.1-0.8-0.3-1.7-0.3-2.5c0.1-2.5,0.3-4.9,1.6-7.1c1.1-1.7,2.8-2.3,4.7-2.3c5.3,0,10.6,0,15.9,0c19.2,0,38.5,0.1,57.7,0.1
	c4.3,0,6.7,1.9,7.6,6.3c0.3,1.6,0.4,3.4,0.5,5c0.2,1.8,0.3,3.5,0.5,5.3c0.1,1.1,0.1,2.1,0.2,3.2c0.2,2,0.3,4.1,0.5,6.1
	c0.1,0.9,0.1,1.9,0.2,2.8c0.2,2.8,0.4,5.6,0.6,8.3c0.1,0.8,0.1,1.6,0.2,2.5c0.2,2.6,0.3,5.2,0.5,7.8c0.2,2.6,0.5,5.2,0.6,7.7
	c0.1,1.9,0.2,3.8,0.3,5.7c0.1,1.8,0.3,3.6,0.5,5.4c0.1,0.9,0.1,1.9,0.2,2.8c0.2,2.6,0.3,5.2,0.5,7.8c0.1,1.6,0.3,3.1,0.4,4.8
	c0.3,0,0.6,0,1,0c21.6,0,43.2,0,64.9,0c2.2,0,3,0.8,3,3C204.1,171.1,204.1,172.3,204,173.5z"/>
</svg>
