<?xml version="1.0" encoding="UTF-8"?><svg id="Layer_1" xmlns="http://www.w3.org/2000/svg" viewBox="0 0 151.91 155.14"><defs><style>.cls-1{fill:#f59b24;}.cls-1,.cls-2,.cls-3,.cls-4,.cls-5{stroke-width:0px;}.cls-2{fill:#ffdb33;}.cls-3{fill:#fcd7b8;}.cls-4{fill:#ec6643;}.cls-5{fill:#ef9ec4;}</style></defs><path class="cls-5" d="m113.03,31.14c-15.94,5.21-25.19,20.66-19.97,36.6l2.91,8.89,14.87-4.86-1.34-4.11c-2.61-7.97,1.74-16.54,9.71-19.15l29.66-9.7-5.73-17.51-30.09,9.84Z"/><circle class="cls-5" cx="126.06" cy="64.49" r="12.88" transform="translate(-15.14 75.11) rotate(-31.4)"/><path class="cls-4" d="m49.29,31.7c.03,16.77,11.87,30.34,28.64,30.31l9.36-.02-.03-15.64h-4.33c-8.38.03-15.19-6.76-15.21-15.14l-.06-31.2-18.43.04.06,31.66Z"/><circle class="cls-4" cx="85.03" cy="29.61" r="12.88" transform="translate(-4.55 20.51) rotate(-13.4)"/><path class="cls-3" d="m30.13,92.48c15.96,5.15,32.52-1.91,37.67-17.87l2.87-8.91-14.89-4.8-1.33,4.12c-2.57,7.98-11.13,12.36-19.11,9.78l-29.69-9.58L0,82.76l30.13,9.72Z"/><circle class="cls-3" cx="39.19" cy="57.85" r="12.88" transform="translate(-21.61 92.27) rotate(-85.4)"/><path class="cls-2" d="m82.02,129.49c9.83-13.59,8.23-31.52-5.35-41.35l-7.58-5.49-9.17,12.67,3.5,2.54c6.79,4.91,8.32,14.41,3.4,21.2l-18.29,25.28,14.93,10.8,18.56-25.65Z"/><circle class="cls-2" cx="51.88" cy="110.17" r="12.88" transform="translate(-69.77 115.72) rotate(-67.4)"/><path class="cls-1" d="m133.25,91.58c-9.88-13.55-27.43-17.57-40.98-7.69l-7.56,5.52,9.22,12.64,3.49-2.55c6.77-4.94,16.27-3.46,21.21,3.32l18.39,25.21,14.89-10.86-18.66-25.58Z"/><circle class="cls-1" cx="105.56" cy="114.27" r="12.88" transform="translate(-49.9 120.05) rotate(-49.4)"/></svg>