<?xml version="1.0" encoding="UTF-8"?>
<svg version="1.1" xmlns="http://www.w3.org/2000/svg" width="1080" height="1080">
<path d="M0 0 C356.4 0 712.8 0 1080 0 C1080 356.4 1080 712.8 1080 1080 C723.6 1080 367.2 1080 0 1080 C0 723.6 0 367.2 0 0 Z " fill="#8C1515" transform="translate(0,0)"/>
<path d="M0 0 C356.4 0 712.8 0 1080 0 C1080 356.4 1080 712.8 1080 1080 C723.6 1080 367.2 1080 0 1080 C0 723.6 0 367.2 0 0 Z M441 74 C440.2795752 74.18723633 439.55915039 74.37447266 438.81689453 74.56738281 C420.52323521 79.43392485 403.26155259 87.59966986 388.53833008 99.53637695 C383.22424011 103.80443294 378.85624506 106.42856448 371.9375 106.375 C370.93589844 106.38273437 369.93429687 106.39046875 368.90234375 106.3984375 C365.61470553 105.94710628 363.74879296 104.80076904 361 103 C360.34 103 359.68 103 359 103 C359 102.34 359 101.68 359 101 C355.69017694 99.55628153 352.37667475 98.12119733 349.0625 96.6875 C348.13630859 96.28337891 347.21011719 95.87925781 346.25585938 95.46289062 C332.74181503 89.63051359 317.83291403 84.47719831 303 84 C301.98824707 83.96132812 301.98824707 83.96132812 300.95605469 83.921875 C257.56866713 82.45298334 213.04741858 98.58626528 181.0625 128.125 C179.50498502 129.60715902 177.96154861 131.10175076 176.42724609 132.60791016 C175.09284586 133.90944114 173.72901391 135.18060486 172.36328125 136.44921875 C157.89575735 150.18995966 147.37320417 167.74102472 140.38183594 186.32958984 C138.5363029 191.14538644 136.60355717 195.31240644 132.16796875 198.1875 C131.51441406 198.455625 130.86085938 198.72375 130.1875 199 C129.39988281 199.32484375 128.61226563 199.6496875 127.80078125 199.984375 C124.52091674 201.17372615 121.20343584 202.20441806 117.875 203.25 C105.60003857 207.18909594 94.54185923 213.28529884 85 222 C84.49758789 222.4547168 83.99517578 222.90943359 83.47753906 223.37792969 C66.51661525 238.91270976 56.47436649 258.127234 49.125 279.75 C48.85083252 280.55195801 48.57666504 281.35391602 48.29418945 282.18017578 C47.45543274 284.77118147 46.71039544 287.37084939 46 290 C45.72188477 291.01779541 45.44376953 292.03559082 45.15722656 293.08422852 C42.49237823 304.33220161 42.47588054 315.52222486 42.49902344 327.0300293 C42.49998939 330.40046441 42.45837683 333.76856711 42.4140625 337.13867188 C42.22757947 371.24512505 52.30064745 404.69354242 73.61621094 431.59375 C77.97067172 437.10692299 81.94948731 442.75869044 85.625 448.75 C86.06312012 449.43473389 86.50124023 450.11946777 86.95263672 450.82495117 C89.92839098 455.82232325 91.10226129 460.19781904 90 466 C88.41796875 468.79296875 88.41796875 468.79296875 86.1875 471.1875 C85.36507812 472.11691406 84.54265625 473.04632813 83.6953125 474.00390625 C83.03450684 474.73311279 83.03450684 474.73311279 82.36035156 475.47705078 C52.9208128 508.43538582 43.12801366 548.56631683 45 592 C47.80174694 633.18445112 62.58362955 674.17078656 88.390625 706.51171875 C91.6386622 710.7194033 94.38927838 715.23651503 97.1875 719.75 C101.15426354 726.12880869 105.11777719 732.27258587 110 738 C110.68908447 738.81791016 110.68908447 738.81791016 111.39208984 739.65234375 C118.33021082 748.1719779 118.33021082 748.1719779 126 756 C126.66 756 127.32 756 128 756 C127.96519531 757.27230469 127.93039063 758.54460938 127.89453125 759.85546875 C127.09515908 802.12480857 140.71736828 839.69871501 165.84301758 873.25195312 C169.15214189 877.71555704 172.1197605 882.31322371 175 887.0625 C192.70753796 916.03815288 218.17531924 938.21751986 248.06396484 953.96582031 C250.66154975 955.35338269 253.1992358 956.84104891 255.75 958.3125 C261.87948708 961.65071296 268.39132664 963.81023695 275 966 C276.20462891 966.41378906 276.20462891 966.41378906 277.43359375 966.8359375 C282.87863228 968.69424423 288.38255731 970.36172988 293.88671875 972.03515625 C295.87066517 972.65000539 297.84545018 973.29586711 299.8059082 973.98193359 C305.25719967 975.71944681 310.87473507 976.5626507 316.5 977.5625 C318.28664063 977.89411133 318.28664063 977.89411133 320.109375 978.23242188 C334.90480406 980.88246896 349.58010768 981.20797349 364.5625 981.1875 C365.45005981 981.18656342 366.33761963 981.18562683 367.2520752 981.18466187 C380.26679182 981.15490841 393.11023549 980.96468264 406 979 C407.01755371 978.84934082 408.03510742 978.69868164 409.08349609 978.54345703 C431.22859388 975.1676997 452.82384228 969.70574388 474.11962891 962.77929688 C479.62504532 961.28978262 484.58264686 961.02131452 489.89453125 963.171875 C493.50917085 965.29973831 496.2567251 967.77959156 499.25 970.6875 C500.39891529 971.7717888 501.54997274 972.8538121 502.703125 973.93359375 C503.54520508 974.7222583 503.54520508 974.7222583 504.40429688 975.52685547 C516.67426544 986.85442437 530.88234584 994.27404633 546 1001 C547.17691406 1001.52851562 548.35382813 1002.05703125 549.56640625 1002.6015625 C553.03588503 1004.01461529 556.44571109 1005.09041419 560.0625 1006.0625 C561.22910156 1006.38347656 562.39570312 1006.70445312 563.59765625 1007.03515625 C574.86937447 1009.68885169 586.14231778 1010.37704257 597.6875 1010.3125 C598.38621216 1010.31034485 599.08492432 1010.3081897 599.80480957 1010.30596924 C611.08463505 1010.25035133 622.00548717 1009.67827497 633 1007 C633.79728516 1006.80664062 634.59457031 1006.61328125 635.41601562 1006.4140625 C658.00389506 1000.70987471 678.28389788 990.10128771 696 975 C697.21236328 974.00613281 697.21236328 974.00613281 698.44921875 972.9921875 C708.68310793 964.28454553 716.42571769 953.42203476 723.4765625 942.06201172 C726.81736097 936.81690071 730.29770568 932.91852928 736.3671875 930.85546875 C737.90601131 930.54224717 739.45169491 930.26236969 741 930 C742.1334082 929.8035791 743.26681641 929.6071582 744.43457031 929.40478516 C747.16232674 928.94073661 749.89208629 928.49064083 752.62329102 928.04736328 C801.69247278 920.07096817 852.0726526 907.5714496 893 878 C894.01835938 877.26652344 895.03671875 876.53304687 896.0859375 875.77734375 C911.69669732 864.27442824 926.44428083 850.37956423 937 834 C937 833.34 937 832.68 937 832 C937.66 832 938.32 832 939 832 C975.16089062 768.89570069 973.78392017 698.79351581 959.43334961 629.25415039 C958.25554622 623.12758209 957.52150645 614.94561776 960.3125 609.1875 C962.99349536 605.43593653 966.81759603 602.84926339 970.41015625 600.0234375 C990.25875431 583.76846821 1004.84143114 564.35156078 1017 542 C1017.51602783 541.06873291 1017.51602783 541.06873291 1018.04248047 540.11865234 C1027.5228191 522.90064869 1032.41821891 504.2127496 1036 485 C1036.17885742 484.1229541 1036.35771484 483.2459082 1036.54199219 482.34228516 C1037.16977311 477.76109069 1037.22159396 473.22893504 1037.2734375 468.609375 C1037.28596558 467.59998871 1037.29849365 466.59060242 1037.31140137 465.55062866 C1037.68233905 434.45046398 1037.68233905 434.45046398 1032 404 C1031.77006348 403.15566406 1031.54012695 402.31132812 1031.30322266 401.44140625 C1029.76824103 395.87071567 1027.9780647 390.42793781 1026 385 C1025.70754395 384.18869629 1025.41508789 383.37739258 1025.11376953 382.54150391 C1018.67975985 364.94930697 1010.05959708 349.43063515 999.078125 334.29296875 C995.88444478 329.88086097 992.87291971 325.35900762 989.875 320.8125 C969.02790931 289.38398236 944.44401748 262.23213974 909 247 C908.34 247 907.68 247 907 247 C906.79375 245.824375 906.5875 244.64875 906.375 243.4375 C901.96063223 224.02637598 890.73947978 206.74565199 879 191 C875.25476604 185.84131954 871.73280546 180.601378 868.41040039 175.16259766 C863.7825675 167.60160648 858.88366935 160.66224536 853 154 C852.15824219 153.02546875 851.31648437 152.0509375 850.44921875 151.046875 C831.15275664 129.06141679 804.88944667 112.56773256 777 104 C776.0925 103.70867187 775.185 103.41734375 774.25 103.1171875 C771.84389925 102.36528102 769.42919014 101.67354817 767 101 C765.83984375 100.67128906 764.6796875 100.34257813 763.484375 100.00390625 C762.19819085 99.64744671 760.91173173 99.29197783 759.625 98.9375 C758.46226562 98.61652344 757.29953125 98.29554687 756.1015625 97.96484375 C754.73666039 97.63366428 753.36922091 97.31284453 752 97 C751.23042969 96.81832275 750.46085938 96.63664551 749.66796875 96.44946289 C738.83632129 94.26328586 727.75194349 94.56113567 716.75 94.5625 C715.67685547 94.56110016 714.60371094 94.55970032 713.49804688 94.55825806 C697.73568376 94.57520779 683.15489172 95.32694342 668 100 C666.52026314 100.41408274 665.03981282 100.825626 663.55859375 101.234375 C652.80742654 104.3041737 642.24320125 108.27775294 632.29296875 113.3828125 C613.95198248 122.75067775 613.95198248 122.75067775 605 120 C601.09792591 117.4952511 598.14310166 114.38449186 595 111 C562.43903875 79.24177431 519.09509342 69.10502662 474.89639282 69.60426331 C463.29879213 69.80776575 452.22515876 70.97071436 441 74 Z " fill="#FEFEFE" transform="translate(0,0)"/>
<path d="M0 0 C15.1901743 12.35618656 24.84505851 26.9229319 32 45 C37.64502402 43.36334502 43.23754519 41.60400781 48.80859375 39.73046875 C74.46193184 31.14006898 100.1170188 25.37372654 127 22 C127.64148483 21.91378891 128.28296967 21.82757782 128.94389343 21.73875427 C135.29945211 20.94389058 141.60369055 20.80672578 148.00390625 20.76171875 C149.72000092 20.74709595 149.72000092 20.74709595 151.47076416 20.73217773 C175.99185392 20.56627891 199.80634792 20.73459524 224 25 C226.38143495 25.38978424 228.76294576 25.77910532 231.14453125 26.16796875 C254.31397491 30.08788918 279.85782859 35.42891429 301 46 C301.19335938 45.40832031 301.38671875 44.81664062 301.5859375 44.20703125 C302.94414719 40.0853355 304.32050585 36.0049476 306 32 C306.66 32 307.32 32 308 32 C308.08378906 31.30261719 308.16757812 30.60523438 308.25390625 29.88671875 C312.08901632 15.04825623 328.6458104 2.35334889 341 -5 C361.29443207 -15.3161486 382.87669349 -17.4338596 404.75 -11.3125 C425.94728791 -4.08854865 442.62003907 11.35534337 452.73046875 31.2265625 C459.09182121 45.12367094 462.55057464 57.9890721 462.375 73.3125 C462.35977295 75.23280029 462.35977295 75.23280029 462.34423828 77.19189453 C461.93618765 102.03869871 453.67416558 121.41958857 436.41796875 139.30859375 C434.21086176 141.7652928 432.57798685 144.11139285 431 147 C431.46672119 147.71410034 431.46672119 147.71410034 431.94287109 148.44262695 C449.72706465 175.78460087 462.85244201 204.02382592 470 236 C470.33668701 237.49128418 470.33668701 237.49128418 470.68017578 239.01269531 C477.13454698 269.08025721 475.78567356 301.92999482 470 332 C469.77570313 333.18456787 469.77570313 333.18456787 469.546875 334.39306641 C468.6299642 339.01476377 467.41417517 343.51007246 466 348 C465.61400635 349.24595947 465.61400635 349.24595947 465.22021484 350.51708984 C460.44713608 365.66642678 454.15961457 379.83718944 447 394 C446.34 394 445.68 394 445 394 C444.93554688 394.65097656 444.87109375 395.30195312 444.8046875 395.97265625 C443.66195267 400.27178 441.46165349 403.67882937 439.125 407.4375 C438.63249756 408.23446289 438.13999512 409.03142578 437.63256836 409.85253906 C433.31080912 416.72390941 428.5702388 423.11995272 423.37402344 429.34960938 C422.03763688 430.95479295 420.7252275 432.57732011 419.4140625 434.203125 C413.0297688 441.99308133 406.0338445 449.17501684 398.9375 456.3125 C398.02766357 457.23160156 397.11782715 458.15070313 396.18041992 459.09765625 C390.09515867 465.15501601 383.750074 470.6964168 377 476 C376.30994873 476.54406494 375.61989746 477.08812988 374.90893555 477.64868164 C303.77553505 533.05039134 210.39162912 554.67592827 121.484375 544.0390625 C97.12196981 540.78858775 71.60124839 536.96569666 49 527 C46.24445797 525.99658612 43.46488343 525.06596458 40.6875 524.125 C34.96633029 522.15039885 29.57278789 519.97546973 24.21875 517.12890625 C22.03369143 516.0171423 19.86172427 515.15896099 17.5625 514.3125 C12.30297518 512.27223918 7.3619047 509.68423363 2.375 507.0625 C1.57521729 506.64331299 0.77543457 506.22412598 -0.04858398 505.79223633 C-11.62422763 499.64062222 -11.62422763 499.64062222 -15 497 C-15 496.34 -15 495.68 -15 495 C-15.65742188 494.9484375 -16.31484375 494.896875 -16.9921875 494.84375 C-21.34333668 493.62316789 -24.50067351 491.14102886 -28.125 488.5 C-28.88200195 487.95609619 -29.63900391 487.41219238 -30.41894531 486.85180664 C-36.47823734 482.4622407 -42.29315144 477.83859833 -48 473 C-48.96550781 472.21882813 -49.93101562 471.43765625 -50.92578125 470.6328125 C-64.55629732 459.5343541 -77.33959979 446.99177528 -88 433 C-89.2065625 431.4840625 -89.2065625 431.4840625 -90.4375 429.9375 C-129.65415571 380.46071638 -147.72559078 317.94266447 -140.56933594 255.22201538 C-139.05741807 242.50958148 -136.82911237 230.23763616 -133 218 C-132.7215625 217.00742187 -132.443125 216.01484375 -132.15625 214.9921875 C-130.51247105 209.14962536 -128.37532707 203.58129 -126 198 C-125.7412207 197.38157227 -125.48244141 196.76314453 -125.21582031 196.12597656 C-119.95583768 183.61494441 -113.71285768 171.78834244 -107 160 C-106.34 160 -105.68 160 -105 160 C-104.89816406 159.27425781 -104.79632813 158.54851562 -104.69140625 157.80078125 C-103.92660387 154.70268347 -102.76251495 152.78911705 -100.9375 150.1875 C-100.38964844 149.39730469 -99.84179688 148.60710937 -99.27734375 147.79296875 C-98.85582031 147.20128906 -98.43429688 146.60960937 -98 146 C-98.68964844 145.36835938 -99.37929687 144.73671875 -100.08984375 144.0859375 C-118.58163852 126.48195181 -129.39657376 102.63820545 -130.18359375 77.0625 C-130.38850312 65.9922196 -130.09599392 55.46162697 -125.83984375 45.0859375 C-125.22044023 43.54751202 -124.65833312 41.98572432 -124.12890625 40.4140625 C-116.90635554 19.01613217 -100.88310687 2.77281873 -81.11328125 -7.5 C-54.88748491 -20.07042449 -23.33753487 -17.4496247 0 0 Z " fill="#FEFEFE" transform="translate(350,299)"/>
<path d="M0 0 C22.44 0 44.88 0 68 0 C68 13.18313836 64.4277875 22.31489884 55.30859375 31.75 C51.42418963 35.36501591 48.21558027 36.66968513 43 38 C53.66252495 62.02822523 69.90195541 78.73406244 94.51953125 88.37890625 C108.03214386 92.80686032 121.6772765 93.33611026 135.75 93.5625 C138.22033037 93.60650997 140.69053569 93.65303862 143.16070557 93.70530701 C144.68416667 93.73717 146.20774097 93.76408918 147.73138428 93.78553772 C152.88802943 93.88802943 152.88802943 93.88802943 154 95 C154.3125 97.875 154.3125 97.875 154 101 C151.11964908 104.2126991 148.1531655 104.47499488 144 105 C113.15073549 106.56925539 84.22141266 100.84772496 59.875 80.75 C50.07350696 71.79035299 41.24607261 59.74376785 35 48 C35 47.34 35 46.68 35 46 C34.01 46 33.02 46 32 46 C31.34 48.31 30.68 50.62 30 53 C29.34 53 28.68 53 28 53 C27.74089844 53.72058594 27.48179687 54.44117188 27.21484375 55.18359375 C18.72588646 74.8637809 -0.74777047 89.00141328 -19.94873047 96.79052734 C-36.05703798 102.93356122 -52.60303298 105.16921335 -69.75 105.25 C-70.85988281 105.270625 -71.96976562 105.29125 -73.11328125 105.3125 C-74.72009766 105.32023438 -74.72009766 105.32023438 -76.359375 105.328125 C-77.32327148 105.3374707 -78.28716797 105.34681641 -79.28027344 105.35644531 C-82.53221237 104.93024865 -84.4062116 103.98922992 -87 102 C-87.5 98.9375 -87.5 98.9375 -87 96 C-83.34238856 93.56159237 -81.58322111 93.76029556 -77.2265625 93.76171875 C-75.84048335 93.75043156 -74.45441493 93.73776241 -73.06835938 93.72387695 C-72.34285889 93.71893219 -71.6173584 93.71398743 -70.86987305 93.70889282 C-56.63448445 93.57323476 -43.64785416 92.31031072 -30 88 C-29.23816406 87.77683105 -28.47632813 87.55366211 -27.69140625 87.32373047 C-4.02648675 80.37089621 11.5047292 63.96560906 23.2578125 42.76953125 C24.19339126 40.8587271 24.19339126 40.8587271 24 38 C21.36 37.01 18.72 36.02 16 35 C16 34.34 16 33.68 16 33 C15.11828125 32.61714844 15.11828125 32.61714844 14.21875 32.2265625 C7.8452775 28.70319918 3.59266197 21.6349844 1 15 C0 11 0 11 0 0 Z " fill="#8D1818" transform="translate(482,604)"/>
<path d="M0 0 C6.50141434 5.83569218 11.79488191 14.931185 12.56640625 23.7265625 C12.82293367 33.2180772 11.40191826 39.90720692 7.29296875 48.609375 C-0.29737706 44.01169857 -7.48238377 38.95567121 -14.64990234 33.73291016 C-19.96255876 29.86202355 -25.31956063 26.06273927 -30.70703125 22.296875 C-36.90315236 17.95511418 -42.8975449 13.46250856 -48.70703125 8.609375 C-47.9152979 2.88846302 -42.98869872 -0.01656019 -38.70703125 -3.390625 C-26.25128059 -12.03087892 -11.30324899 -9.20813877 0 0 Z " fill="#8D1717" transform="translate(753.70703125,343.390625)"/>
<path d="M0 0 C4.93976628 2.98643163 9.02108903 6.54139917 12.22265625 11.34375 C6.32733877 16.81317002 0.39995254 22.11962435 -5.92578125 27.08984375 C-8.81584127 29.37417886 -11.67051949 31.69743843 -14.5222168 34.02929688 C-20.35437283 38.79473786 -26.20987146 43.52879749 -32.15234375 48.15625 C-33.71082031 49.37248047 -33.71082031 49.37248047 -35.30078125 50.61328125 C-37.77734375 52.34375 -37.77734375 52.34375 -39.77734375 52.34375 C-39.77734375 53.00375 -39.77734375 53.66375 -39.77734375 54.34375 C-40.43734375 54.34375 -41.09734375 54.34375 -41.77734375 54.34375 C-47.77311974 44.9218163 -49.07646676 37.1881243 -47.77734375 26.34375 C-45.24797975 15.70253682 -39.47283304 7.18884952 -30.62890625 0.7890625 C-21.36707582 -4.65726304 -9.6601635 -4.5156023 0 0 Z " fill="#8C1616" transform="translate(317.77734375,342.65625)"/>
<path d="M0 0 C6.6591344 4.07702106 9.74894688 10.37175168 11.75390625 17.7890625 C14.60585263 32.58727377 14.72503608 51.02189974 6 64 C3.21832658 67.60865741 2.0264076 68.83504164 -2.5 69.5625 C-6.62834769 68.89901555 -7.98164572 67.83801236 -11 65 C-12.765625 62.16015625 -12.765625 62.16015625 -14.25 59.0625 C-14.75015625 58.04285156 -15.2503125 57.02320313 -15.765625 55.97265625 C-20.91095106 43.58153875 -20.02250463 23.93667285 -15.28125 11.5078125 C-11.68232303 4.46357129 -8.5706093 -0.98891646 0 0 Z " fill="#8D1717" transform="translate(427,486)"/>
<path d="M0 0 C5.7408174 3.10960942 8.45237481 8.15521662 10.859375 14.109375 C12.7138463 20.64882643 12.60138313 27.43851677 12.625 34.1875 C12.6357959 35.47003662 12.6465918 36.75257324 12.65771484 38.07397461 C12.50248693 48.5275625 10.54497414 57.61425188 4 66 C3.401875 66.804375 2.80375 67.60875 2.1875 68.4375 C0 70 0 70 -3.375 70.1875 C-8.37609503 68.54921025 -10.24290023 66.37913321 -13 62 C-17.42301591 52.96745065 -18.76635249 44.98326251 -18.5625 35 C-18.57345703 33.83210937 -18.58441406 32.66421875 -18.59570312 31.4609375 C-18.51523534 21.78334554 -17.27108997 11.4256966 -10.875 3.75 C-7.06705326 0.10761616 -5.25118288 -0.60590572 0 0 Z " fill="#8C1616" transform="translate(597,486)"/>
<path d="M0 0 C3.875 1.875 3.875 1.875 5 3 C5.04080783 4.99958364 5.04254356 7.00045254 5 9 C3.02 9.66 1.04 10.32 -1 11 C-2.5625 9.875 -2.5625 9.875 -4 8 C-3.875 4.9375 -3.875 4.9375 -3 2 C-2.01 1.34 -1.02 0.68 0 0 Z " fill="#932323" transform="translate(626,601)"/>
<path d="M0 0 C2.5625 0.1875 2.5625 0.1875 4.5625 2.1875 C4.875 5.1875 4.875 5.1875 4.5625 8.1875 C1.5625 10.1875 1.5625 10.1875 -0.5 10 C-2.4375 9.1875 -2.4375 9.1875 -4.4375 6.1875 C-3.73509704 0.28731516 -3.73509704 0.28731516 0 0 Z " fill="#952828" transform="translate(681.4375,611.8125)"/>
<path d="M0 0 C2.21538462 5.41538462 2.21538462 5.41538462 1.125 8.375 C0.75375 8.91125 0.3825 9.4475 0 10 C-2.3125 10.25 -2.3125 10.25 -5 10 C-6.9375 8.3125 -6.9375 8.3125 -8 6 C-7.3125 3.3125 -7.3125 3.3125 -6 1 C-4 0 -4 0 0 0 Z " fill="#942525" transform="translate(634,580)"/>
<path d="M0 0 C2.5625 0.1875 2.5625 0.1875 4.5625 2.1875 C4.6875 5.3125 4.6875 5.3125 4.5625 8.1875 C2.9125 8.8475 1.2625 9.5075 -0.4375 10.1875 C-2.5 8.5 -2.5 8.5 -4.4375 6.1875 C-4.02742806 0.30980216 -4.02742806 0.30980216 0 0 Z " fill="#952727" transform="translate(662.4375,654.8125)"/>
<path d="M0 0 C2.625 0.375 2.625 0.375 5 1 C5.66 2.98 6.32 4.96 7 7 C5.8125 8.5 5.8125 8.5 4 10 C1.375 10.25 1.375 10.25 -1 10 C-2 9 -2 9 -2.1875 5.5625 C-2 2 -2 2 0 0 Z " fill="#932525" transform="translate(669,580)"/>
<path d="M0 0 C3.125 0.375 3.125 0.375 6 1 C6.33 2.98 6.66 4.96 7 7 C5.25 8.5625 5.25 8.5625 3 10 C0.75 9.6875 0.75 9.6875 -1 9 C-1.625 5.625 -1.625 5.625 -2 2 C-1.34 1.34 -0.68 0.68 0 0 Z " fill="#942525" transform="translate(634,648)"/>
<path d="M0 0 C2.31 0.33 4.62 0.66 7 1 C7.6875 3.8125 7.6875 3.8125 8 7 C6.8125 8.875 6.8125 8.875 5 10 C3.68 10 2.36 10 1 10 C-1.56687367 6.1496895 -0.83288724 4.41430237 0 0 Z " fill="#922121" transform="translate(653,596)"/>
<path d="M0 0 C1.9375 0.75 1.9375 0.75 3.9375 2.75 C3.60778521 6.04714793 3.3148161 7.3726839 0.9375 9.75 C-3.61805556 9.19444444 -3.61805556 9.19444444 -5.0625 7.75 C-5.3125 4.8125 -5.3125 4.8125 -5.0625 1.75 C-2.0625 -0.25 -2.0625 -0.25 0 0 Z " fill="#901F1F" transform="translate(668.0625,630.25)"/>
<path d="M0 0 C1.9375 0.75 1.9375 0.75 3.9375 1.75 C3.6075 4.06 3.2775 6.37 2.9375 8.75 C-1.8125 9.875 -1.8125 9.875 -4.0625 8.75 C-4.875 5.875 -4.875 5.875 -5.0625 2.75 C-3.55171598 0.2850366 -2.91179407 -0.35294474 0 0 Z " fill="#932323" transform="translate(622.0625,623.25)"/>
<path d="M0 0 C1.58538318 2.51796153 2.0373656 3.67865586 1.6875 6.6875 C1 9 1 9 0 10 C-2.4375 10.25 -2.4375 10.25 -5 10 C-7 7 -7 7 -6.8125 4.4375 C-5.56136739 0.68410217 -3.84403821 0 0 0 Z " fill="#952828" transform="translate(411,595)"/>
<path d="M0 0 C2.625 0.5625 2.625 0.5625 5 2 C5.9375 4.4375 5.9375 4.4375 6 7 C5.01 8.485 5.01 8.485 4 10 C1.5 10.375 1.5 10.375 -1 10 C-3.1387261 6.79191085 -3.47730962 5.72301503 -3 2 C-2.01 1.34 -1.02 0.68 0 0 Z " fill="#952828" transform="translate(423,581)"/>
<path d="M0 0 C2.625 0.625 2.625 0.625 5 2 C6 3.875 6 3.875 6 6 C4.5625 8.25 4.5625 8.25 3 10 C-1.875 9.125 -1.875 9.125 -3 8 C-3.25 5.0625 -3.25 5.0625 -3 2 C-2.01 1.34 -1.02 0.68 0 0 Z " fill="#932323" transform="translate(387,634)"/>
<path d="M0 0 C2.625 0.375 2.625 0.375 5 1 C5.625 3.8125 5.625 3.8125 6 7 C5.01 8.485 5.01 8.485 4 10 C1.625 9.6875 1.625 9.6875 -1 9 C-3 6 -3 6 -2.75 3.9375 C-2 2 -2 2 0 0 Z " fill="#901D1D" transform="translate(643,617)"/>
<path d="M0 0 C1.2375 0.1546875 1.2375 0.1546875 2.5 0.3125 C4.5 3.3125 4.5 3.3125 4.1875 5.9375 C3.5 8.3125 3.5 8.3125 2.5 9.3125 C0.0625 9.5 0.0625 9.5 -2.5 9.3125 C-4.5 7.3125 -4.5 7.3125 -4.75 4.8125 C-4.40047575 1.3172575 -3.47557682 0.4344471 0 0 Z " fill="#942626" transform="translate(375.5,605.6875)"/>
<path d="M0 0 C2.375 -0.125 2.375 -0.125 5 0 C7 2 7 2 7.1875 5.0625 C7 8 7 8 6 9 C3.0625 9.25 3.0625 9.25 0 9 C-2 6 -2 6 -1.6875 3.9375 C-1 2 -1 2 0 0 Z " fill="#912020" transform="translate(599,587)"/>
<path d="M0 0 C1.9375 0.6875 1.9375 0.6875 4 2 C4.93580311 4.87939419 5.37245106 6.25509788 4 9 C1.0625 9.75 1.0625 9.75 -2 10 C-4 8 -4 8 -4.375 5.5625 C-4 3 -4 3 -2 1.1875 C-1.34 0.795625 -0.68 0.40375 0 0 Z " fill="#952929" transform="translate(438,648)"/>
<path d="M0 0 C2.375 0.6875 2.375 0.6875 3.375 1.6875 C3.625 4.0625 3.625 4.0625 3.375 6.6875 C1.875 8.5 1.875 8.5 0.375 9.6875 C-2.09300047 8.53576645 -3.67283565 7.63966435 -5.625 5.6875 C-5.625 4.3675 -5.625 3.0475 -5.625 1.6875 C-2.625 -0.3125 -2.625 -0.3125 0 0 Z " fill="#922323" transform="translate(598.625,612.3125)"/>
<path d="M0 0 C2 0.1875 2 0.1875 4 1 C6 4 6 4 5.625 6.6875 C5.41875 7.450625 5.2125 8.21375 5 9 C3.35 9.33 1.7 9.66 0 10 C-1.5625 8.25 -1.5625 8.25 -3 6 C-2.73495121 2.99611368 -2.16695725 2.16695725 0 0 Z " fill="#901E1E" transform="translate(385,578)"/>
<path d="M0 0 C1.875 0.6875 1.875 0.6875 2.875 1.6875 C2.58769945 4.02694736 2.25563221 6.3614143 1.875 8.6875 C-0.5 9.3125 -0.5 9.3125 -3.125 9.6875 C-5.125 7.6875 -5.125 7.6875 -5.4375 4.6875 C-5.334375 3.6975 -5.23125 2.7075 -5.125 1.6875 C-2.125 -0.3125 -2.125 -0.3125 0 0 Z " fill="#932424" transform="translate(362.125,624.3125)"/>
<path d="M0 0 C1.875 0.8125 1.875 0.8125 2.875 2.8125 C3 5.875 3 5.875 2.875 8.8125 C1.875 9.8125 1.875 9.8125 -0.5625 10 C-3.125 9.8125 -3.125 9.8125 -5.125 7.8125 C-5.49771546 4.90531944 -5.51778138 3.40167207 -3.875 0.9375 C-2.125 -0.1875 -2.125 -0.1875 0 0 Z " fill="#912020" transform="translate(398.125,615.1875)"/>
<path d="M0 0 C2 3 2 3 1.8125 5 C0.885644 7.2814917 -0.08360049 8.4668804 -2 10 C-2.66 10 -3.32 10 -4 10 C-4 9.34 -4 8.68 -4 8 C-4.99 7.67 -5.98 7.34 -7 7 C-7.1875 4.625 -7.1875 4.625 -7 2 C-4 0 -4 0 0 0 Z " fill="#962A2A" transform="translate(427,607)"/>
<path d="M0 0 C3.875 1.875 3.875 1.875 5 3 C5.25 5.4375 5.25 5.4375 5 8 C2 10 2 10 -0.125 9.6875 C-2 9 -2 9 -3 8 C-3.25 5.0625 -3.25 5.0625 -3 2 C-2.01 1.34 -1.02 0.68 0 0 Z " fill="#932424" transform="translate(442,617)"/>
<path d="M0 0 C2.475 0.99 2.475 0.99 5 2 C5.1875 4.875 5.1875 4.875 5 8 C2 10 2 10 -0.1875 9.625 C-0.785625 9.41875 -1.38375 9.2125 -2 9 C-2.6875 6.1875 -2.6875 6.1875 -3 3 C-1.5625 1.125 -1.5625 1.125 0 0 Z " fill="#911F1F" transform="translate(444,594)"/>
<path d="M0 0 C2.33944736 0.28730055 4.6739143 0.61936779 7 1 C7.20086443 4.71599191 7.1519437 5.77208445 5 9 C0.125 8.125 0.125 8.125 -1 7 C-1.125 4 -1.125 4 -1 1 C-0.67 0.67 -0.34 0.34 0 0 Z " fill="#922121" transform="translate(403,654)"/>
<path d="M0 0 C0.78375 0.04125 1.5675 0.0825 2.375 0.125 C3 3.5 3 3.5 3.375 7.125 C2.715 7.785 2.055 8.445 1.375 9.125 C-3.18055556 8.56944444 -3.18055556 8.56944444 -4.625 7.125 C-4.8125 4.6875 -4.8125 4.6875 -4.625 2.125 C-2.625 0.125 -2.625 0.125 0 0 Z " fill="#911F1F" transform="translate(420.625,633.875)"/>
<path d="M0 0 C2.5625 0.1875 2.5625 0.1875 4.5625 2.1875 C4.1875 5.3125 4.1875 5.3125 3.5625 8.1875 C1.75 8.8125 1.75 8.8125 -0.4375 9.1875 C-1.4275 8.5275 -2.4175 7.8675 -3.4375 7.1875 C-3.6875 4.125 -3.6875 4.125 -3.4375 1.1875 C-2.4375 0.1875 -2.4375 0.1875 0 0 Z " fill="#8E1919" transform="translate(608.4375,638.8125)"/>
</svg>
