<svg width="37" height="38" viewBox="0 0 37 38" fill="none" xmlns="http://www.w3.org/2000/svg">
<path d="M36.4127 18.925C36.4127 17.3926 36.2886 16.2744 36.0199 15.1147H18.5499V22.0312H28.8044C28.5977 23.7501 27.4813 26.3386 25.0003 28.0781L24.9655 28.3096L30.4892 32.5958L30.8719 32.634C34.3865 29.3828 36.4127 24.5991 36.4127 18.925Z" fill="#4285F4"/>
<path d="M18.6323 37.0997C23.6407 37.0997 27.8453 35.4629 30.9164 32.6397L25.0629 28.1387C23.4965 29.223 21.3941 29.98 18.6323 29.98C13.727 29.98 9.56359 26.768 8.07946 22.3285L7.86192 22.3468L2.13598 26.7455L2.0611 26.9521C5.11149 32.9669 11.3772 37.0997 18.6323 37.0997Z" fill="#34A853"/>
<path d="M7.90087 22.1116C7.51397 20.9513 7.29006 19.708 7.29006 18.4235C7.29006 17.1388 7.51398 15.8956 7.88051 14.7353L7.87027 14.4882L2.14224 9.9619L1.95483 10.0526C0.712722 12.5804 0 15.4191 0 18.4235C0 21.4278 0.712722 24.2663 1.95483 26.7942L7.90087 22.1116Z" fill="#FBBC05"/>
<path d="M18.5617 7.11959C22.03 7.11959 24.3696 8.61307 25.7036 9.86114L30.9164 4.78734C27.715 1.82083 23.5487 0 18.5617 0C11.3375 0 5.09848 4.13263 2.0611 10.1475L8.03327 14.7712C9.53159 10.3317 13.6772 7.11959 18.5617 7.11959Z" fill="#EB4335"/>
</svg>
