<?xml version="1.0" encoding="UTF-8" standalone="no"?>
<svg
   xmlns:dc="http://purl.org/dc/elements/1.1/"
   xmlns:cc="http://creativecommons.org/ns#"
   xmlns:rdf="http://www.w3.org/1999/02/22-rdf-syntax-ns#"
   xmlns:svg="http://www.w3.org/2000/svg"
   xmlns="http://www.w3.org/2000/svg"
   xmlns:sodipodi="http://sodipodi.sourceforge.net/DTD/sodipodi-0.dtd"
   xmlns:inkscape="http://www.inkscape.org/namespaces/inkscape"
   width="1425pt"
   height="379.18539pt"
   version="1.1"
   viewBox="0 0 1425 379.18539"
   id="svg24"
   sodipodi:docname="roar-lion.svg"
   inkscape:version="1.0 (4035a4f, 2020-05-01)"
   inkscape:export-filename="/Users/richford/projects/roar/roar-query/src/assets/roar-lion.png"
   inkscape:export-xdpi="96"
   inkscape:export-ydpi="96">
  <metadata
     id="metadata30">
    <rdf:RDF>
      <cc:Work
         rdf:about="">
        <dc:format>image/svg+xml</dc:format>
        <dc:type
           rdf:resource="http://purl.org/dc/dcmitype/StillImage" />
        <dc:title />
      </cc:Work>
    </rdf:RDF>
  </metadata>
  <defs
     id="defs28">
    <rect
       x="-1313.074"
       y="471.03925"
       width="175.07654"
       height="391.83798"
       id="rect38" />
  </defs>
  <sodipodi:namedview
     inkscape:document-rotation="0"
     pagecolor="#ffffff"
     bordercolor="#666666"
     borderopacity="1"
     objecttolerance="10"
     gridtolerance="10"
     guidetolerance="10"
     inkscape:pageopacity="0"
     inkscape:pageshadow="2"
     inkscape:window-width="1378"
     inkscape:window-height="830"
     id="namedview26"
     showgrid="false"
     inkscape:zoom="0.51441114"
     inkscape:cx="613.46694"
     inkscape:cy="211.62038"
     inkscape:window-x="0"
     inkscape:window-y="38"
     inkscape:window-maximized="0"
     inkscape:current-layer="g22" />
  <text
     xml:space="preserve"
     style="font-style:normal;font-weight:normal;font-size:512px;line-height:1.25;font-family:sans-serif;fill:#000000;fill-opacity:1;stroke:none;stroke-width:0.205295"
     x="-39.5"
     y="372.84268"
     id="text34"><tspan
       sodipodi:role="line"
       id="tspan32"
       x="-39.5"
       y="372.84268"
       style="font-style:normal;font-variant:normal;font-weight:normal;font-stretch:normal;font-size:512px;font-family:'Arial Rounded MT Bold';-inkscape-font-specification:'Arial Rounded MT Bold, ';stroke-width:0.205295">R   AR</tspan></text>
  <g
     id="g22"
     transform="matrix(0.31390138,0,0,0.31598677,345.70892,0)"
     style="stroke-width:36.72100579;stroke-miterlimit:4;stroke-dasharray:none">
    <path
       d="M 664,329.33 H 532 c -14.668,0 -17.332,8 -6.668,18.668 L 576,394.666 c 5.332,5.332 13.332,8 20,8 6.668,0 14.668,-2.668 20,-6.668 l 54.668,-48 c 10.664,-10.668 8,-18.668 -6.668,-18.668 z m 2.668,13.336 -54.668,48 c -4,4 -9.332,5.332 -14.668,5.332 -5.332,0 -12,-2.668 -16,-5.332 l -50.668,-46.668 c -4,-2.668 -4,-5.332 -4,-5.332 0,0 2.668,-1.332 6.668,-1.332 h 132 c 4,0 5.332,0 6.668,1.332 -2.668,0 -2.668,1.332 -5.332,4 z"
       id="path10"
       style="stroke-width:4.57226531;stroke-miterlimit:4;stroke-dasharray:none;stroke:#000000;stroke-opacity:1" />
    <path
       d="m 522.67,270.67 4,-5.332 c -4,-2.668 -82.668,-49.332 -120,-26.668 l 4,5.332 c 32,-20 110.66,26.668 112,26.668 z"
       id="path12"
       style="stroke-width:37.91169988;stroke-miterlimit:4;stroke-dasharray:none" />
    <path
       d="m 350.67,340 10.668,8 c 54.668,-66.668 133.33,-42.668 136,-42.668 l 4,-13.332 c -0.004,1.332 -90.668,-25.332 -150.67,48 z"
       id="path14"
       style="stroke-width:37.91169988;stroke-miterlimit:4;stroke-dasharray:none" />
    <path
       d="m 786.67,244 4,-5.332 C 753.338,216 673.34,264 670.67,265.336 l 4,5.332 c 0,0 78.664,-46.668 112,-26.668 z"
       id="path16"
       style="stroke-width:37.91169988;stroke-miterlimit:4;stroke-dasharray:none" />
    <path
       d="m 694.67,293.33 4,13.332 c 4,-1.332 82.668,-24 136,42.668 l 10.668,-8 c -60.004,-74.664 -150.67,-48 -150.67,-48 z"
       id="path18"
       style="stroke-width:37.91169988;stroke-miterlimit:4;stroke-dasharray:none" />
    <path
       d="M 600,0 C 472,0 354.67,42.668 258.67,114.67 h -1.332 v 1.332 c -144,109.33 -237.34,285.33 -237.34,484 0,37.332 4,74.668 10.668,110.67 0,1.332 0,2.668 -1.332,5.332 h 1.332 c 52,276 286.66,484 569.33,484 320,0 580,-268 580,-600 0,-332 -260,-600 -580,-600 z m 534.67,450.67 c -52,-13.332 -120,8 -154.67,22.668 -12,-26.668 -25.332,-46.668 -30.668,-54.668 -2.668,-36 -10.668,-66.668 -21.332,-93.332 17.332,-17.332 72,-68 133.33,-42.668 32,50.664 57.336,106.66 73.336,168 z m -448,332 c -29.332,34.668 -58.668,46.668 -85.332,46.668 -50.668,0 -88,-46.668 -88,-46.668 -21.332,17.332 -25.332,45.332 -26.668,61.332 -6.668,-5.332 -13.332,-9.332 -21.332,-14.668 -36,-42.668 -58.668,-102.67 -58.668,-169.33 0,-60 18.668,-114.67 49.332,-156 5.332,24 21.332,66.668 61.332,82.668 0,0 -16,-60 13.332,-101.33 0,0 17.332,-16 42.668,-16 6.668,0 14.668,1.332 22.668,4 8,-2.668 14.668,-4 22.668,-4 25.332,0 42.668,16 42.668,16 29.332,40 13.332,101.33 13.332,101.33 40,-17.332 56,-58.668 61.332,-82.668 30.668,41.332 49.332,96 49.332,156 0,73.332 -26.668,138.67 -69.332,181.33 -4,-42.664 -29.332,-58.664 -29.332,-58.664 z m 20,65.332 -4,4 c -33.332,21.332 -64,37.332 -92,41.332 -4,0 -9.332,1.332 -13.332,1.332 -12,0 -25.332,-4 -38.668,-9.332 l -45.332,-22.668 c -6.668,-4 -13.332,-8 -20,-13.332 0,-12 2.668,-40 20,-57.332 12,13.332 45.332,44 89.332,44 30.668,0 58.668,-14.668 85.332,-44 6.668,6.668 18.668,24 18.668,56 z m -41.336,-366.67 c -1.332,-1.332 -20,-18.668 -48,-18.668 -8,0 -14.668,1.332 -22.668,4 -6.668,-2.668 -14.668,-4 -22.668,-4 -26.668,0 -46.668,17.332 -46.668,18.668 -22.668,30.668 -20,70.668 -17.332,92 -32,-20 -42.668,-58.668 -46.668,-77.332 34.668,-42.668 81.332,-69.332 133.33,-69.332 51.998,0 100,26.668 133.33,69.332 -4,18.668 -16,57.332 -46.668,77.332 4.0078,-20 6.6758,-61.332 -15.992,-92 z m 132,178.67 c 0,-68 -22.668,-129.33 -58.668,-174.67 -29.332,-36 -66.668,-60 -109.33,-69.332 -12,-2.668 -21.332,-4 -26.668,-4 H 596 589.332 c -5.332,0 -14.668,1.332 -26.668,4 -42.668,8 -80,33.332 -109.33,69.332 -36,45.332 -58.668,106.67 -58.668,174.67 0,52 13.332,100 36,140 -88,-74.668 -166.67,-165.33 -168,-166.67 -77.332,-89.332 9.332,-196 13.332,-200 l 2.668,-2.668 v -4 c 21.34,-258.66 268.01,-272 317.34,-272 h 8 c 49.332,0 296,13.332 317.33,269.33 v 4 l 2.668,2.668 c 1.332,1.332 90.668,110.67 13.332,200 -1.332,1.332 -90.668,106.67 -186.67,182.67 29.336,-40.004 46.668,-94.668 46.668,-153.34 z m 240,-410.67 c -54.668,-5.332 -100,29.332 -121.33,49.332 -20,-40 -46.668,-69.332 -76,-93.332 10.668,-20 37.332,-60 92,-64 40,30.668 74.668,66.668 105.33,108 z m -134.66,-129.33 c -46.668,13.332 -72,49.332 -84,69.332 -42.668,-28 -88,-42.668 -126.67,-52 9.332,-25.332 34.668,-70.668 84,-82.668 44,17.336 86.668,38.668 126.67,65.336 z M 600.004,26.67 c 46.668,0 92,6.668 134.67,17.332 -41.332,24 -62.668,66.668 -70.668,89.332 -29.332,-4 -52,-5.332 -60,-5.332 h -4 -4 c -8,0 -32,0 -62.668,5.332 -8,-22.668 -28,-65.332 -69.332,-89.332 42.668,-10.668 89.332,-17.332 136,-17.332 z m -177.33,30.664 c 49.332,12 73.332,57.332 82.668,82.668 -38.668,8 -84,24 -126.67,52 -10.668,-20 -37.332,-56 -82.668,-70.668 40,-26.664 82.668,-49.332 126.67,-64 z m -154.67,84 c 54.668,5.332 81.332,48 90.668,65.332 -29.332,24 -56,54.668 -74.668,93.332 -24,-22.668 -69.332,-54.668 -120,-52 29.332,-38.664 64,-75.996 104,-106.66 z m -128,138.67 c 56,-18.668 109.33,25.332 132,46.668 -9.332,26.668 -17.332,57.332 -20,90.668 -5.332,8 -20,28 -32,54.668 -33.332,-12.004 -100,-34.672 -153.33,-22.672 16,-61.332 41.332,-117.33 73.332,-169.33 z m -93.332,320 c 0,-41.332 4,-81.332 12,-120 46.668,-20 120,6.668 152,20 -10.668,36 -13.332,80 10.668,122.67 -40,2.668 -129.33,12 -170.67,50.668 -2.668,-24.004 -4,-49.336 -4,-73.336 z m 10.664,110.67 c 13.332,-48 137.33,-62.668 182.67,-62.668 0,1.332 1.332,1.332 1.332,2.668 4,4 36,42.668 82.668,89.332 -52,16 -160,57.332 -204,145.33 -29.332,-53.332 -50.668,-112 -62.668,-174.66 z m 78.668,202.66 c 38.668,-100 169.33,-141.33 210.67,-152 22.668,21.332 46.668,44 72,65.332 -22.668,26.668 -129.33,152 -132,246.67 -60,-44 -110.67,-98.664 -150.67,-160 z m 392,254.67 c -77.332,-10.668 -150.67,-37.332 -214.67,-77.332 -13.332,-73.332 82.668,-200 125.33,-248 34.668,26.668 69.332,49.332 102.67,64 -12,34.664 -42.664,137.33 -13.332,261.33 z m 112,4 c -13.332,1.332 -26.668,1.332 -40,1.332 -14.668,0 -29.332,-1.332 -42.668,-1.332 -32,-121.33 -1.332,-224 10.668,-256 10.668,2.668 21.332,5.332 32,5.332 8,0 16,-1.332 24,-2.668 12,26.668 49.332,129.34 16,253.34 z m 242.67,-78.668 c -64,40 -137.33,66.668 -214.67,76 29.332,-125.33 -4,-225.33 -18.668,-258.67 34.668,-13.332 72,-37.332 109.33,-65.332 44.004,48 138.67,174.67 124,248 z m 28,-18.664 c -1.332,-93.332 -105.33,-217.33 -130.67,-246.67 25.332,-21.332 50.668,-44 73.332,-65.332 32,8 170.67,48 208,154.67 -40,61.332 -90.664,114.66 -150.66,157.33 z m 168,-186.67 c -45.332,-93.332 -154.67,-134.67 -202.67,-148 46.668,-46.668 80,-85.332 82.668,-89.332 0,-1.332 1.332,-1.332 1.332,-2.668 49.332,1.332 177.33,17.332 181.33,69.332 h 1.332 c -13.332,61.336 -34.664,118.67 -63.996,170.67 z m -100,-265.33 c 24,-42.668 21.332,-88 10.668,-124 34.668,-14.668 106.67,-38.668 152,-17.332 v -1.332 c 8,38.668 12,80 12,121.33 0,25.332 -1.332,50.668 -5.332,76 -38.672,-41.336 -128,-52.004 -169.34,-54.668 z"
       id="path20"
       style="stroke-width:14.2883291;stroke-miterlimit:4;stroke-dasharray:none;stroke:#000000;stroke-opacity:1" />
  </g>
  <text
     xml:space="preserve"
     id="text36"
     style="font-style:normal;font-weight:normal;font-size:30px;line-height:1.25;font-family:sans-serif;white-space:pre;shape-inside:url(#rect38);fill:#000000;fill-opacity:1;stroke:none;"
     transform="matrix(0.27372607,0,0,0.27372607,288.34584,39.853788)" />
</svg>
